<?xml version="1.0" encoding="UTF-8" standalone="no"?>
<!-- Created with Inkscape (http://www.inkscape.org/) -->

<svg
   width="194.49205mm"
   height="39.815739mm"
   viewBox="0 0 194.49205 39.815739"
   version="1.1"
   id="svg12882"
   inkscape:version="1.1.1 (c3084ef, 2021-09-22)"
   sodipodi:docname="matsim-lifecycle.svg"
   xmlns:inkscape="http://www.inkscape.org/namespaces/inkscape"
   xmlns:sodipodi="http://sodipodi.sourceforge.net/DTD/sodipodi-0.dtd"
   xmlns="http://www.w3.org/2000/svg"
   xmlns:svg="http://www.w3.org/2000/svg"
   xmlns:rdf="http://www.w3.org/1999/02/22-rdf-syntax-ns#"
   xmlns:cc="http://creativecommons.org/ns#"
   xmlns:dc="http://purl.org/dc/elements/1.1/">
  <defs
     id="defs12876" />
  <sodipodi:namedview
     id="base"
     pagecolor="#ffffff"
     bordercolor="#666666"
     borderopacity="1.0"
     inkscape:pageopacity="0.0"
     inkscape:pageshadow="2"
     inkscape:zoom="2.8"
     inkscape:cx="396.78571"
     inkscape:cy="118.03571"
     inkscape:document-units="mm"
     inkscape:current-layer="layer1"
     showgrid="false"
     inkscape:window-width="2507"
     inkscape:window-height="1387"
     inkscape:window-x="0"
     inkscape:window-y="25"
     inkscape:window-maximized="1"
     inkscape:pagecheckerboard="0" />
  <metadata
     id="metadata12879">
    <rdf:RDF>
      <cc:Work
         rdf:about="">
        <dc:format>image/svg+xml</dc:format>
        <dc:type
           rdf:resource="http://purl.org/dc/dcmitype/StillImage" />
        <dc:title />
      </cc:Work>
    </rdf:RDF>
  </metadata>
  <g
     inkscape:label="Ebene 1"
     inkscape:groupmode="layer"
     id="layer1"
     transform="translate(-10.198871,-17.440338)">
    <g
       style="display:inline"
       id="g4405"
       transform="matrix(0.23988617,0,0,0.22859818,81.094839,-103.35377)">
      <path
         inkscape:connector-curvature="0"
         d="m -264.64465,559.15797 741.48736,0.15602"
         style="fill:none;stroke:#6095c9;stroke-width:9.98741;stroke-linecap:butt;stroke-linejoin:round;stroke-miterlimit:10;stroke-dasharray:none;stroke-opacity:1"
         id="path4038" />
      <path
         inkscape:connector-curvature="0"
         d="m -129.82874,579.36862 c 0,-11.07588 8.97689,-20.05467 20.05046,-20.05467 h 439.24453 c 11.07346,0 20.05037,8.97879 20.05037,20.05467 v 72.26084 c 0,11.07588 -8.97691,20.05467 -20.05037,20.05467 h -439.24453 c -11.07357,0 -20.05046,-8.97879 -20.05046,-20.05467 z"
         style="fill:none;stroke:#ffffff;stroke-width:14.9811;stroke-linecap:butt;stroke-linejoin:round;stroke-miterlimit:10;stroke-dasharray:none;stroke-opacity:1"
         id="path4042" />
      <path
         id="path4044"
         style="fill:none;stroke:none"
         d="m -129.82874,579.36871 c 0,-11.07588 8.97688,-20.05475 20.0505,-20.05475 h 439.24438 c 11.07363,0 20.0505,8.97887 20.0505,20.05475 v 72.26087 c 0,11.07588 -8.97687,20.05461 -20.0505,20.05461 h -439.24437 c -11.07363,0 -20.0505,-8.97873 -20.0505,-20.05461 v -72.26087 z"
         inkscape:connector-curvature="0" />
      <path
         inkscape:connector-curvature="0"
         d="m -129.82874,579.36862 c 0,-11.07588 8.97689,-20.05467 20.05046,-20.05467 h 439.24453 c 11.07346,0 20.05037,8.97879 20.05037,20.05467 v 72.26084 c 0,11.07588 -8.97691,20.05467 -20.05037,20.05467 h -439.24453 c -11.07357,0 -20.05046,-8.97879 -20.05046,-20.05467 z"
         style="fill:none;stroke:#6095c9;stroke-width:9.98741;stroke-linecap:butt;stroke-linejoin:round;stroke-miterlimit:10;stroke-dasharray:none;stroke-opacity:1"
         id="path4048" />
      <path
         id="path4050"
         style="fill:#6094c9;fill-opacity:1;fill-rule:evenodd;stroke:none"
         d="m -294.60372,539.33733 c 0,-5.51662 4.47112,-9.98863 9.98655,-9.98863 h 114.53069 c 5.51537,0 9.98662,4.47201 9.98662,9.98863 v 39.95338 c 0,5.51662 -4.47125,9.98862 -9.98663,9.98862 h -114.53068 c -5.51543,0 -9.98655,-4.472 -9.98655,-9.98862 z"
         inkscape:connector-curvature="0" />
      <path
         inkscape:connector-curvature="0"
         d="m -294.60372,539.33736 c 0,-5.51659 4.47114,-9.98866 9.98656,-9.98866 h 114.53069 c 5.5154,0 9.98656,4.47207 9.98656,9.98866 v 39.9534 c 0,5.51658 -4.47116,9.98865 -9.98656,9.98865 h -114.53069 c -5.51542,0 -9.98656,-4.47207 -9.98656,-9.98865 z"
         style="fill:none;stroke:#ffffff;stroke-width:1.87264;stroke-linecap:butt;stroke-linejoin:round;stroke-miterlimit:10;stroke-dasharray:none;stroke-opacity:1"
         id="path4054" />
      <text
         style="line-height:0%"
         y="554.76117"
         x="-252.69199"
         transform="scale(0.99989535,1.0001047)"
         id="text4058"><tspan
           style="font-variant:normal;font-weight:normal;font-size:22.4717px;line-height:1.25;font-family:Arial;-inkscape-font-specification:ArialMT;writing-mode:lr-tb;fill:#ffffff;fill-opacity:1;fill-rule:nonzero;stroke:none"
           x="-252.69199 -247.69879 -235.20004 -230.20685 -223.95523 -218.96202 -206.46329 -201.47008"
           y="554.76117"
           sodipodi:role="line"
           id="tspan4060">initial</tspan></text>
      <text
         style="line-height:0%"
         y="580.97803"
         x="-267.69141"
         transform="scale(0.99989535,1.0001047)"
         id="text4064"><tspan
           style="font-variant:normal;font-weight:normal;font-size:22.4717px;line-height:1.25;font-family:Arial;-inkscape-font-specification:ArialMT;writing-mode:lr-tb;fill:#ffffff;fill-opacity:1;fill-rule:nonzero;stroke:none"
           x="-267.69141 -255.19266 -242.69391 -223.97502 -211.47627 -198.97754 -186.47879"
           y="580.97803"
           sodipodi:role="line"
           id="tspan4066">demand</tspan></text>
      <path
         id="path4068"
         style="fill:#6095c9;fill-opacity:1;fill-rule:evenodd;stroke:none"
         d="m 379.78789,539.33733 c 0,-5.51662 4.47113,-9.98863 9.9865,-9.98863 h 114.53075 c 5.51537,0 9.9865,4.47201 9.9865,9.98863 v 39.95338 c 0,5.51662 -4.47113,9.98862 -9.9865,9.98862 H 389.77439 c -5.51537,0 -9.9865,-4.472 -9.9865,-9.98862 z"
         inkscape:connector-curvature="0" />
      <path
         inkscape:connector-curvature="0"
         d="m 379.7879,539.33736 c 0,-5.51659 4.47113,-9.98866 9.98657,-9.98866 h 114.53067 c 5.5154,0 9.98656,4.47207 9.98656,9.98866 v 39.9534 c 0,5.51658 -4.47116,9.98865 -9.98656,9.98865 H 389.77447 c -5.51544,0 -9.98657,-4.47207 -9.98657,-9.98865 z"
         style="fill:none;stroke:#ffffff;stroke-width:1.87264;stroke-linecap:butt;stroke-linejoin:round;stroke-miterlimit:10;stroke-dasharray:none;stroke-opacity:1"
         id="path4072" />
      <text
         style="line-height:0%"
         y="568.24414"
         x="403.02914"
         transform="scale(0.99989535,1.0001047)"
         id="text4076"><tspan
           style="font-variant:normal;font-weight:normal;font-size:22.4717px;line-height:1.25;font-family:Arial;-inkscape-font-specification:ArialMT;writing-mode:lr-tb;fill:#ffffff;fill-opacity:1;fill-rule:nonzero;stroke:none"
           x="403.02914 415.52786 428.02661 440.52536 445.51855 456.75439 467.99023 480.48895 491.72479"
           y="568.24414"
           sodipodi:role="line"
           id="tspan4078">analyses</tspan></text>
      <path
         id="path4080"
         style="fill:#6095c9;fill-opacity:1;fill-rule:evenodd;stroke:none"
         d="m -92.06786,539.33733 c 0,-5.51662 4.471125,-9.98863 9.986625,-9.98863 H 32.44939 c 5.5155,0 9.986625,4.47201 9.986625,9.98863 v 39.95338 c 0,5.51662 -4.471125,9.98862 -9.986625,9.98862 H -82.081235 c -5.5155,0 -9.986625,-4.472 -9.986625,-9.98862 z"
         inkscape:connector-curvature="0" />
      <path
         inkscape:connector-curvature="0"
         d="m -92.06787,539.33736 c 0,-5.51659 4.47113,-9.98866 9.986549,-9.98866 H 32.449391 c 5.515401,0 9.986559,4.47207 9.986559,9.98866 v 39.9534 c 0,5.51658 -4.471158,9.98865 -9.986559,9.98865 H -82.081321 c -5.515419,0 -9.986549,-4.47207 -9.986549,-9.98865 z"
         style="fill:none;stroke:#ffffff;stroke-width:1.87264;stroke-linecap:butt;stroke-linejoin:round;stroke-miterlimit:10;stroke-dasharray:none;stroke-opacity:1"
         id="path4084" />
      <text
         style="line-height:0%"
         y="568.24414"
         x="-63.861443"
         transform="scale(0.99989535,1.0001047)"
         id="text4088"><tspan
           style="font-variant:normal;font-weight:normal;font-size:22.4717px;line-height:1.25;font-family:Arial;-inkscape-font-specification:ArialMT;writing-mode:lr-tb;fill:#ffffff;fill-opacity:1;fill-rule:nonzero;stroke:none"
           x="-63.861443 -45.142544 -32.643806 -20.145063 -8.9092312 -3.916028 14.802869"
           y="568.24414"
           sodipodi:role="line"
           id="tspan4090">mobsim</tspan></text>
      <path
         id="path4092"
         style="fill:#6095c9;fill-opacity:1;fill-rule:evenodd;stroke:none"
         d="m 176.93989,539.33733 c 0,-5.51662 4.47112,-9.98863 9.9865,-9.98863 h 114.37475 c 5.51537,0 9.9865,4.47201 9.9865,9.98863 v 39.95338 c 0,5.51662 -4.47113,9.98862 -9.9865,9.98862 H 186.92639 c -5.51538,0 -9.9865,-4.472 -9.9865,-9.98862 z"
         inkscape:connector-curvature="0" />
      <path
         inkscape:connector-curvature="0"
         d="m 176.93991,539.33736 c 0,-5.51659 4.47113,-9.98866 9.98658,-9.98866 h 114.37476 c 5.5153,0 9.98646,4.47207 9.98646,9.98866 v 39.9534 c 0,5.51658 -4.47116,9.98865 -9.98646,9.98865 H 186.92649 c -5.51545,0 -9.98658,-4.47207 -9.98658,-9.98865 z"
         style="fill:none;stroke:#ffffff;stroke-width:1.87264;stroke-linecap:butt;stroke-linejoin:round;stroke-miterlimit:10;stroke-dasharray:none;stroke-opacity:1"
         id="path4096" />
      <text
         style="line-height:0%"
         y="568.24414"
         x="208.20702"
         transform="scale(0.99989535,1.0001047)"
         id="text4100"><tspan
           style="font-variant:normal;font-weight:normal;font-size:22.4717px;line-height:1.25;font-family:Arial;-inkscape-font-specification:ArialMT;writing-mode:lr-tb;fill:#ffffff;fill-opacity:1;fill-rule:nonzero;stroke:none"
           x="208.20702 219.44286 230.67868 243.17743 250.66049 255.65369 268.15244 280.65118"
           y="568.24414"
           sodipodi:role="line"
           id="tspan4102">scoring</tspan></text>
      <path
         id="path4104"
         style="fill:#6095c9;fill-opacity:1;fill-rule:evenodd;stroke:none"
         d="m 42.436015,651.70745 c 0,-5.51649 4.471125,-9.98862 9.986625,-9.98862 h 114.53063 c 5.51537,0 9.98662,4.47213 9.98662,9.98862 v 39.95346 c 0,5.51657 -4.47125,9.98865 -9.98662,9.98865 H 52.42264 c -5.5155,0 -9.986625,-4.47208 -9.986625,-9.98865 z"
         inkscape:connector-curvature="0" />
      <path
         inkscape:connector-curvature="0"
         d="m 42.436007,651.70749 c 0,-5.51658 4.47113,-9.98866 9.986576,-9.98866 H 166.95327 c 5.5154,0 9.98655,4.47208 9.98655,9.98866 v 39.95341 c 0,5.51657 -4.47115,9.98864 -9.98655,9.98864 H 52.422583 c -5.515446,0 -9.986576,-4.47207 -9.986576,-9.98864 z"
         style="fill:none;stroke:#ffffff;stroke-width:1.87264;stroke-linecap:butt;stroke-linejoin:round;stroke-miterlimit:10;stroke-dasharray:none;stroke-opacity:1"
         id="path4108" />
      <text
         style="line-height:0%"
         y="680.6026"
         x="57.511337"
         transform="scale(0.99989535,1.0001047)"
         id="text4112"><tspan
           style="font-variant:normal;font-weight:normal;font-size:22.4717px;line-height:1.25;font-family:Arial;-inkscape-font-specification:ArialMT;writing-mode:lr-tb;fill:#ffffff;fill-opacity:1;fill-rule:nonzero;stroke:none"
           x="57.511337 64.9944 77.493141 89.991882 94.985085 107.48383 119.98257 132.48131 137.47452 149.97325 162.472"
           y="680.6026"
           sodipodi:role="line"
           id="tspan4114">replanning</tspan></text>
      <path
         id="path4116"
         style="fill:#ffffff;fill-opacity:1;fill-rule:evenodd;stroke:none"
         d="m 102.90039,567.76033 -1.12887,-1.12912 6.84274,-6.84413 -6.92562,-6.92712 1.21175,-1.21188 8.05438,8.05612 z"
         inkscape:connector-curvature="0" />
      <path
         inkscape:connector-curvature="0"
         d="m 102.9004,567.76034 -1.12885,-1.1291 6.8427,-6.84414 -6.92563,-6.92705 1.2117,-1.21196 8.05447,8.05616 z"
         style="fill:none;stroke:#ffffff;stroke-width:0.936319;stroke-linecap:butt;stroke-linejoin:round;stroke-miterlimit:10;stroke-dasharray:none;stroke-opacity:1"
         id="path4120" />
      <path
         id="path4122"
         style="fill:#ffffff;fill-opacity:1;fill-rule:evenodd;stroke:none"
         d="m 357.55264,567.76033 -1.12887,-1.12912 6.84275,-6.84413 -6.92563,-6.92712 1.21175,-1.21188 8.0545,8.05612 z"
         inkscape:connector-curvature="0" />
      <path
         inkscape:connector-curvature="0"
         d="m 357.55266,567.76034 -1.12885,-1.12909 6.84273,-6.84414 -6.92566,-6.92705 1.2117,-1.21197 8.0545,8.05617 z"
         style="fill:none;stroke:#ffffff;stroke-width:0.936319;stroke-linecap:butt;stroke-linejoin:round;stroke-miterlimit:10;stroke-dasharray:none;stroke-opacity:1"
         id="path4126" />
      <path
         id="path4128"
         style="fill:#ffffff;fill-opacity:1;fill-rule:evenodd;stroke:none"
         d="m -152.06386,567.76033 -1.12887,-1.12912 6.84262,-6.84413 -6.92563,-6.92712 1.21176,-1.21188 8.0545,8.05612 z"
         inkscape:connector-curvature="0" />
      <path
         inkscape:connector-curvature="0"
         d="m -152.06385,567.76033 -1.12886,-1.12909 6.84271,-6.84414 -6.92562,-6.92705 1.2117,-1.21197 8.05448,8.05617 z"
         style="fill:none;stroke:#ffffff;stroke-width:0.936319;stroke-linecap:butt;stroke-linejoin:round;stroke-miterlimit:10;stroke-dasharray:none;stroke-opacity:1"
         id="path4132" />
      <path
         id="path4134"
         style="fill:#ffffff;fill-opacity:1;fill-rule:evenodd;stroke:none"
         d="m 341.22814,588.26496 1.12887,-1.12901 6.84263,6.84413 6.92562,-6.92712 1.21175,1.212 -8.0545,8.05612 z"
         inkscape:connector-curvature="0" />
      <path
         inkscape:connector-curvature="0"
         d="m 341.22817,588.26496 1.12885,-1.12909 6.84273,6.84414 6.92558,-6.92707 1.2117,1.21195 -8.05442,8.05616 z"
         style="fill:none;stroke:#ffffff;stroke-width:0.936319;stroke-linecap:butt;stroke-linejoin:round;stroke-miterlimit:10;stroke-dasharray:none;stroke-opacity:1"
         id="path4138" />
      <path
         id="path4140"
         style="fill:#ffffff;fill-opacity:1;fill-rule:evenodd;stroke:none"
         d="m -137.33699,588.26496 1.12888,1.12912 6.84262,-6.84412 6.92563,6.927 1.21162,-1.21201 -8.05437,-8.05612 -8.05438,8.05612 z"
         inkscape:connector-curvature="0" />
      <path
         inkscape:connector-curvature="0"
         d="m -137.33699,588.26497 1.12886,1.1291 6.84269,-6.84414 6.92555,6.92699 1.21171,-1.21195 -8.0544,-8.05609 z"
         style="fill:none;stroke:#ffffff;stroke-width:0.936319;stroke-linecap:butt;stroke-linejoin:round;stroke-miterlimit:10;stroke-dasharray:none;stroke-opacity:1"
         id="path4144" />
    </g>
  </g>
</svg>
